<svg xmlns="http://www.w3.org/2000/svg" viewBox="0 0 128 128">
<path fill="#EA2D2E" d="M47.617 98.12c-19.192 5.362 11.677 16.439 36.115 5.969-4.003-1.556-6.874-3.351-6.874-3.351-10.897 2.06-15.952 2.222-25.844 1.092-8.164-.934-3.397-3.71-3.397-3.71z"/>
<path fill="#EA2D2E" d="M66.458 84.126c-5.943 3.53-12.488 6.162-15.208 6.661-7.773 1.41-15.137 1.049-20.182-.315 0 0 1.021 2.082 6.257 3.108 7.945 1.554 22.696.888 30.054-4.042 0 0 .855-1.087-1.021-5.412z"/>
<path fill="#EA2D2E" d="M80.127 75.604c-2.406-2.088-4.993-3.505-4.993-3.505s.843-1.321 2.406-1.821c8.084-2.589 16.585 4.193 11.054 10.092 4.993-5.599-1.321-8.908-8.467-4.766z"/>
<path fill="#EA2D2E" d="M109.695 98.619c1.071-.594 1.832-1.275 1.832-1.275s-3.063 1.645-5.459 2.063c-14.312 2.499-30.091 2.659-40.749.749-7.945-1.415 2.406-3.907 2.406-3.907l-.023-.047c-2.842-1.019-17.341 2.833-4.951 6.414 34.082 9.87 61.996-3.997 46.944-3.997z"/>
<path fill="#EA2D2E" d="M115.488 90.042s3.937 3.094-4.307 5.524c-15.658 4.615-65.244 6.009-79.034.185-4.96-2.094 4.307-4.996 7.21-5.608 3.03-.64 4.763-.523 4.763-.523-5.479-3.679-35.414 7.226-15.208 10.349 55.07 8.518 100.432-3.832 86.576-9.927z"/>
<path fill="#EA2D2E" d="M60.94 66.108c-5.607 1.321-8.918 4.068-8.918 4.068s-4.37-1.604-1.321-8.163c2.406-5.147 8.468-8.918 14.528-11.491 1.771-.753 6.257-2.087 6.257-2.087s-3.063-2.087-8.918-.619c-8.918 2.239-18.142 9.356-16.585 15.976 5.607 23.5 45.131 12.009 50.294-5.599 1.604-5.459-4.306-7.092-4.306-7.092s2.406 1.604 1.771 5.147c-1.604 8.918-24.018 14.766-32.802 9.86z"/>
<path fill="#EA2D2E" d="M99.461 29.727s7.548 7.547-6.764 19.149c-11.459 9.286-2.613 14.578-.001 20.628-6.688-6.03-11.596-11.336-8.302-16.277 4.836-7.252 18.225-10.762 15.067-23.5z"/>
</svg>
