<svg viewBox="0 0 128 128" xmlns="http://www.w3.org/2000/svg">
<path fill="#83CD29" d="M112.771 30.334l-44.097-25.605c-2.781-1.584-6.402-1.584-9.205 0l-44.568 25.605c-2.87 1.651-4.901 4.754-4.901 8.073v51.142c0 3.319 2.084 6.423 4.954 8.083l11.775 6.688c5.628 2.772 7.617 2.772 10.178 2.772 8.333 0 13.093-5.039 13.093-13.828v-50.49c0-.713-.371-1.774-1.071-1.774h-5.623c-.712 0-2.306 1.061-2.306 1.773v50.49c0 3.896-3.524 7.773-10.11 4.48l-12.167-7.013c-.424-.23-.723-.693-.723-1.181v-51.142c0-.482.555-.966.982-1.213l44.424-25.561c.415-.235 1.025-.235 1.439 0l43.882 25.555c.42.253.272.722.272 1.219v51.142c0 .488.183.963-.232 1.198l-44.086 25.576c-.378.227-.847.227-1.261 0l-11.307-6.749c-.341-.198-.746-.269-1.073-.086-3.146 1.783-3.726 2.02-6.677 3.043-.696.242-1.812.594.457 1.712l14.744 8.694c1.357.793 2.958 1.188 4.538 1.188 1.596 0 3.169-.395 4.542-1.186l43.896-25.578c2.871-1.672 4.955-4.764 4.955-8.075v-51.142c0-3.319-2.084-6.422-4.955-8.074z"/>
<path fill="#83CD29" d="M77.91 81.445c-11.726 0-14.309-3.235-15.17-9.066-.1-.628-.633-1.379-1.272-1.379h-5.731c-.71 0-1.279.559-1.279 1.279 0 7.546 4.106 16.629 23.451 16.629 14.031 0 22.081-5.546 22.081-15.232 0-9.609-6.512-12.186-20.227-14.001-13.843-1.831-15.266-2.768-15.266-6.010 0-2.669 1.189-6.24 11.439-6.24 9.151 0 12.527 1.973 13.917 8.149.13.574.618 1.007 1.206 1.007h5.789c.379 0 .748-.173.979-.427.236-.255.362-.617.326-.985-1.062-11.073-9.448-16.228-22.217-16.228-12.703 0-20.268 5.359-20.268 14.34 0 9.736 7.527 12.417 19.689 13.606 14.563 1.419 15.827 3.532 15.827 6.371 0 4.937-3.967 7.041-13.274 7.041z"/>
</svg>
